<svg width="12" height="4" viewBox="0 0 12 4" fill="none" xmlns="http://www.w3.org/2000/svg">
<path d="M11.1768 1.82322C11.2744 1.92085 11.2744 2.07915 11.1768 2.17678L9.58579 3.76777C9.48816 3.8654 9.32986 3.8654 9.23223 3.76777C9.1346 3.67014 9.1346 3.51184 9.23223 3.41421L10.6464 2L9.23223 0.585786C9.1346 0.488155 9.1346 0.329864 9.23223 0.232233C9.32986 0.134602 9.48816 0.134602 9.58579 0.232233L11.1768 1.82322ZM1 2.25C0.861929 2.25 0.75 2.13807 0.75 2C0.75 1.86193 0.861929 1.75 1 1.75V2.25ZM1 1.75H11V2.25H1V1.75Z" fill="black"/>
</svg>
