<svg width="40" height="40" viewBox="0 0 40 40" fill="none" xmlns="http://www.w3.org/2000/svg">
<path d="M25.8429 7.27246H14.3506C10.4478 7.27246 7.27271 10.4237 7.27271 14.2969V25.7023C7.27271 29.5757 10.4478 32.7268 14.3506 32.7268H25.8429C29.7459 32.7268 32.9211 29.5755 32.9211 25.7023V14.2969C32.9212 10.4237 29.7459 7.27246 25.8429 7.27246ZM30.6456 25.7023C30.6456 28.3304 28.4911 30.4683 25.843 30.4683H14.3506C11.7026 30.4685 9.54835 28.3304 9.54835 25.7023V14.2969C9.54835 11.669 11.7026 9.53089 14.3506 9.53089H25.8429C28.491 9.53089 30.6454 11.669 30.6454 14.2969V25.7023H30.6456Z" fill="white"/>
<path d="M20.0968 13.4409C16.4526 13.4409 13.4879 16.3832 13.4879 19.9998C13.4879 23.6163 16.4526 26.5585 20.0968 26.5585C23.7411 26.5585 26.7058 23.6163 26.7058 19.9998C26.7058 16.3832 23.7411 13.4409 20.0968 13.4409ZM20.0968 24.2999C17.7076 24.2999 15.7636 22.3709 15.7636 19.9997C15.7636 17.6283 17.7074 15.6992 20.0968 15.6992C22.4863 15.6992 24.4301 17.6283 24.4301 19.9997C24.4301 22.3709 22.4861 24.2999 20.0968 24.2999Z" fill="white"/>
<path d="M26.983 11.5259C26.5446 11.5259 26.1139 11.702 25.8042 12.0107C25.4931 12.3178 25.3142 12.7454 25.3142 13.1821C25.3142 13.6173 25.4932 14.0448 25.8042 14.3534C26.1137 14.6606 26.5446 14.8382 26.983 14.8382C27.423 14.8382 27.8523 14.6606 28.1633 14.3534C28.4743 14.0448 28.6518 13.6172 28.6518 13.1821C28.6518 12.7454 28.4743 12.3178 28.1633 12.0107C27.8538 11.702 27.423 11.5259 26.983 11.5259Z" fill="white"/>
</svg>
