<svg width="24" height="24" viewBox="0 0 24 24" fill="none" xmlns="http://www.w3.org/2000/svg">
<path d="M17.1023 15.1739C18.1759 13.7077 18.8181 11.9068 18.8181 9.95449C18.8181 5.06723 14.8417 1.09082 9.95452 1.09082C5.06729 1.09082 1.09094 5.06723 1.09094 9.95449C1.09094 14.8418 5.06733 18.8182 9.95456 18.8182C11.9069 18.8182 13.708 18.1759 15.1741 17.1022L20.9809 22.909L22.9091 20.9807C22.9091 20.9807 17.1023 15.1739 17.1023 15.1739ZM9.95456 16.0909C6.57077 16.0909 3.81823 13.3383 3.81823 9.95449C3.81823 6.57068 6.57077 3.81812 9.95456 3.81812C13.3383 3.81812 16.0909 6.57068 16.0909 9.95449C16.0909 13.3383 13.3383 16.0909 9.95456 16.0909Z" fill="white"/>
</svg>
