<svg width="40" height="40" viewBox="0 0 40 40" fill="none" xmlns="http://www.w3.org/2000/svg">
<path d="M5.96842 19.4778L12.6716 21.9921L15.2661 30.3776C15.4321 30.9146 16.0856 31.1131 16.5193 30.7568L20.2558 27.6956C20.6474 27.3749 21.2053 27.3589 21.6146 27.6575L28.3538 32.5746C28.8178 32.9136 29.4752 32.6581 29.5915 32.0946L34.5284 8.22939C34.6554 7.61388 34.0536 7.10041 33.4704 7.32708L5.96057 17.9924C5.28168 18.2555 5.2876 19.2214 5.96842 19.4778ZM14.8479 20.6537L27.9484 12.545C28.1838 12.3997 28.4261 12.7196 28.2239 12.9081L17.4122 23.008C17.0322 23.3635 16.7871 23.8393 16.7176 24.3557L16.3493 27.0986C16.3006 27.4648 15.7887 27.5012 15.6881 27.1467L14.2717 22.145C14.1094 21.5745 14.3458 20.9651 14.8479 20.6537Z" fill="white"/>
</svg>
