<svg width="40" height="40" viewBox="0 0 40 40" fill="none" xmlns="http://www.w3.org/2000/svg">
<path d="M34.3913 25.8987C34.3561 25.8228 34.3232 25.7598 34.2927 25.7094C33.788 24.8003 32.8235 23.6846 31.3998 22.3618L31.3697 22.3315L31.3546 22.3166L31.3394 22.3014H31.3241C30.678 21.6854 30.2688 21.2712 30.0974 21.0592C29.7839 20.6553 29.7136 20.2464 29.885 19.8321C30.0061 19.5191 30.4608 18.8581 31.2482 17.8482C31.6624 17.3129 31.9904 16.884 32.2326 16.5608C33.9796 14.2382 34.737 12.7541 34.5047 12.1077L34.4144 11.9567C34.3538 11.8658 34.1973 11.7826 33.9452 11.7067C33.6924 11.631 33.3694 11.6185 32.9755 11.669L28.6134 11.6991C28.5428 11.674 28.4419 11.6764 28.3104 11.7067C28.1791 11.7371 28.1134 11.7523 28.1134 11.7523L28.0375 11.7902L27.9772 11.8358C27.9267 11.8659 27.8712 11.9189 27.8105 11.9947C27.7502 12.0702 27.6998 12.1588 27.6595 12.2597C27.1845 13.4815 26.6446 14.6175 26.0386 15.6676C25.665 16.2938 25.3218 16.8364 25.0084 17.2959C24.6955 17.7552 24.4329 18.0936 24.2211 18.3106C24.0089 18.5277 23.8173 18.7017 23.6454 18.8331C23.4736 18.9645 23.3425 19.0201 23.2518 18.9998C23.1608 18.9794 23.0751 18.9593 22.994 18.9391C22.8527 18.8482 22.7391 18.7245 22.6534 18.568C22.5674 18.4115 22.5094 18.2145 22.4791 17.9772C22.449 17.7398 22.4312 17.5355 22.4261 17.3638C22.4214 17.1923 22.4235 16.9497 22.4338 16.6367C22.4443 16.3235 22.449 16.1117 22.449 16.0006C22.449 15.6168 22.4565 15.2003 22.4715 14.751C22.4868 14.3016 22.4991 13.9456 22.5095 13.6833C22.5198 13.4208 22.5245 13.143 22.5245 12.8501C22.5245 12.5573 22.5067 12.3276 22.4715 12.161C22.4367 11.9945 22.3833 11.8329 22.3129 11.6762C22.242 11.5197 22.1384 11.3987 22.0024 11.3127C21.8661 11.2269 21.6966 11.1588 21.495 11.1082C20.9598 10.987 20.2782 10.9215 19.45 10.9113C17.572 10.8912 16.3652 11.0124 15.83 11.275C15.618 11.3859 15.4261 11.5375 15.2545 11.7292C15.0727 11.9515 15.0474 12.0727 15.1786 12.0927C15.7846 12.1834 16.2135 12.4006 16.466 12.7439L16.557 12.9258C16.6278 13.057 16.6984 13.2894 16.7691 13.6226C16.8398 13.9557 16.8853 14.3243 16.9054 14.728C16.9558 15.4652 16.9558 16.0963 16.9054 16.6213C16.8548 17.1465 16.8071 17.5554 16.7615 17.8482C16.7159 18.1411 16.6478 18.3784 16.557 18.5601C16.466 18.7418 16.4055 18.8529 16.3751 18.8932C16.3448 18.9335 16.3196 18.959 16.2995 18.9689C16.1683 19.0192 16.0318 19.0448 15.8905 19.0448C15.749 19.0448 15.5775 18.9741 15.3756 18.8326C15.1737 18.6912 14.9642 18.4969 14.7471 18.2495C14.5299 18.002 14.285 17.6562 14.0123 17.2119C13.7398 16.7677 13.457 16.2426 13.1642 15.6368L12.9219 15.1974C12.7704 14.9148 12.5635 14.5032 12.301 13.9631C12.0383 13.4228 11.8061 12.9001 11.6042 12.3952C11.5235 12.1832 11.4023 12.0217 11.2408 11.9107L11.1649 11.8651C11.1145 11.8248 11.0336 11.782 10.9227 11.7363C10.8115 11.6908 10.6956 11.6581 10.5743 11.638L6.42415 11.6681C6.00006 11.6681 5.71231 11.7642 5.5608 11.9561L5.50016 12.0468C5.46987 12.0974 5.45459 12.1781 5.45459 12.2893C5.45459 12.4004 5.48488 12.5367 5.54552 12.6981C6.15136 14.122 6.8102 15.4953 7.52204 16.818C8.23388 18.1408 8.85245 19.2063 9.37739 20.0137C9.90244 20.8216 10.4376 21.5841 10.9829 22.3008C11.5282 23.0178 11.8892 23.4773 12.0658 23.6791C12.2426 23.8813 12.3815 24.0325 12.4825 24.1335L12.8612 24.497C13.1035 24.7393 13.4594 25.0296 13.929 25.3678C14.3986 25.7062 14.9186 26.0394 15.4891 26.3678C16.0597 26.6958 16.7235 26.9633 17.4809 27.1703C18.2382 27.3775 18.9753 27.4606 19.6923 27.4205H21.4342C21.7875 27.39 22.0551 27.2789 22.237 27.0872L22.2973 27.0112C22.3378 26.951 22.3757 26.8573 22.4107 26.7314C22.4462 26.6051 22.4638 26.4661 22.4638 26.3148C22.4535 25.8807 22.4865 25.4895 22.562 25.1411C22.6375 24.7929 22.7236 24.5304 22.8198 24.3536C22.916 24.1769 23.0246 24.0278 23.1453 23.907C23.2664 23.7859 23.3527 23.7125 23.4033 23.6872C23.4536 23.6618 23.4937 23.6446 23.524 23.6342C23.7664 23.5535 24.0516 23.6317 24.3801 23.8692C24.7083 24.1065 25.0161 24.3995 25.3041 24.7477C25.5919 25.0963 25.9377 25.4873 26.3415 25.9214C26.7456 26.3557 27.0989 26.6785 27.4017 26.8909L27.7045 27.0726C27.9068 27.1939 28.1693 27.305 28.4925 27.4059C28.8151 27.5069 29.0978 27.5321 29.3405 27.4817L33.2178 27.4212C33.6013 27.4212 33.8997 27.3577 34.1114 27.2317C34.3235 27.1055 34.4495 26.9664 34.4901 26.8152C34.5307 26.6638 34.5329 26.492 34.4978 26.2999C34.4619 26.1084 34.4265 25.9744 34.3913 25.8987Z" fill="white"/>
</svg>
