<svg width="24" height="24" viewBox="0 0 24 24" fill="none" xmlns="http://www.w3.org/2000/svg">
<path fill-rule="evenodd" clip-rule="evenodd" d="M10.386 8.3574C10.1543 8.21838 9.86573 8.21474 9.6306 8.34787C9.39547 8.481 9.25012 8.73031 9.25012 9.00052V15.0005C9.25012 15.2707 9.39547 15.52 9.6306 15.6532C9.86573 15.7863 10.1543 15.7827 10.386 15.6436L15.386 12.6436C15.6119 12.5081 15.7501 12.264 15.7501 12.0005C15.7501 11.7371 15.6119 11.4929 15.386 11.3574L10.386 8.3574ZM13.5424 12.0005L10.7501 13.6759V10.3252L13.5424 12.0005Z" fill="black"/>
<path fill-rule="evenodd" clip-rule="evenodd" d="M17.0308 4.6418C13.6821 4.37982 10.3182 4.37982 6.96951 4.6418L4.72881 4.8171C3.36624 4.9237 2.25155 5.94491 2.02632 7.29295C1.50555 10.4097 1.50555 13.5913 2.02632 16.7081C2.25155 18.0561 3.36624 19.0773 4.72881 19.1839L6.96951 19.3592C10.3182 19.6212 13.6821 19.6212 17.0308 19.3592L19.2715 19.1839C20.6341 19.0773 21.7488 18.0561 21.974 16.7081C22.4948 13.5913 22.4948 10.4097 21.974 7.29295C21.7488 5.94491 20.6341 4.9237 19.2715 4.8171L17.0308 4.6418ZM7.0865 6.13723C10.3573 5.88134 13.643 5.88134 16.9138 6.13723L19.1545 6.31253C19.8301 6.36539 20.3828 6.87174 20.4945 7.54015C20.9879 10.4933 20.9879 13.5078 20.4945 16.4609C20.3828 17.1293 19.8301 17.6356 19.1545 17.6885L16.9138 17.8638C13.643 18.1197 10.3573 18.1197 7.0865 17.8638L4.8458 17.6885C4.17019 17.6356 3.61749 17.1293 3.50581 16.4609C3.01239 13.5078 3.01239 10.4933 3.50581 7.54015C3.61749 6.87174 4.17019 6.36539 4.8458 6.31253L7.0865 6.13723Z" fill="black"/>
</svg>
