<svg width="40" height="40" viewBox="0 0 40 40" fill="none" xmlns="http://www.w3.org/2000/svg">
<path d="M34.5281 17.4431C34.5169 16.8295 34.4677 16.0538 34.3817 15.1165C34.2953 14.1787 34.1716 13.3406 34.0108 12.6021C33.8268 11.7727 33.4271 11.0738 32.8121 10.5056C32.197 9.93728 31.4811 9.60784 30.6644 9.5168C28.1115 9.23291 24.2536 9.09082 19.0908 9.09082C13.928 9.09082 10.0701 9.23291 7.51731 9.5168C6.70076 9.60778 5.9877 9.93728 5.37843 10.5056C4.76892 11.0736 4.37219 11.7725 4.18817 12.6021C4.01587 13.3408 3.88634 14.1789 3.80013 15.1165C3.71404 16.0538 3.66511 16.8292 3.65369 17.4431C3.64203 18.0567 3.63635 18.9089 3.63635 19.9999C3.63635 21.0908 3.64203 21.9432 3.65375 22.5567C3.66517 23.1707 3.7141 23.946 3.80019 24.8833C3.8864 25.821 4.01007 26.6591 4.17107 27.3977C4.35509 28.2274 4.75461 28.9262 5.3698 29.4941C5.98511 30.0623 6.70107 30.3918 7.51737 30.4828C10.0701 30.767 13.9278 30.909 19.0909 30.909C24.2542 30.909 28.1115 30.767 30.6645 30.4828C31.4811 30.3919 32.1939 30.0623 32.8034 29.4941C33.4129 28.9261 33.8094 28.2269 33.9934 27.3977C34.1659 26.6591 34.2953 25.821 34.3817 24.8833C34.4677 23.9461 34.5165 23.1703 34.5281 22.5567C34.5396 21.9432 34.5454 21.0908 34.5454 19.9999C34.5454 18.9089 34.5397 18.0567 34.5281 17.4431ZM25.1969 20.9204L16.3658 26.3747C16.2048 26.4883 16.0091 26.5451 15.7792 26.5451C15.6069 26.5451 15.4286 26.4995 15.2447 26.4086C14.8653 26.2043 14.6756 25.886 14.6756 25.4543V14.5456C14.6756 14.114 14.8653 13.7957 15.2447 13.5912C15.6357 13.3863 16.0093 13.3978 16.3658 13.6253L25.1969 19.0797C25.5418 19.2725 25.7142 19.5795 25.7142 20C25.7142 20.4203 25.5417 20.7274 25.1969 20.9204Z" fill="white"/>
</svg>
