<svg width="24" height="24" viewBox="0 0 24 24" fill="none" xmlns="http://www.w3.org/2000/svg">
<path d="M21 9.99976C21 16.9998 12 22.9998 12 22.9998C12 22.9998 3 16.9998 3 9.99976C3 7.61281 3.94821 5.32362 5.63604 3.63579C7.32387 1.94797 9.61305 0.999756 12 0.999756C14.3869 0.999756 16.6761 1.94797 18.364 3.63579C20.0518 5.32362 21 7.61281 21 9.99976Z" fill="#FF0000"/>
<path d="M12 12.9998C13.6569 12.9998 15 11.6566 15 9.99976C15 8.3429 13.6569 6.99976 12 6.99976C10.3431 6.99976 9 8.3429 9 9.99976C9 11.6566 10.3431 12.9998 12 12.9998Z" fill="white"/>
</svg>
