<svg width="43" height="48" viewBox="0 0 43 48" fill="none" xmlns="http://www.w3.org/2000/svg">
<path fill-rule="evenodd" clip-rule="evenodd" d="M20.6462 0.121677C19.6471 0.391114 18.6731 1.26336 18.2981 2.22458C18.009 2.96586 18.0096 4.05411 18.2997 4.79792C18.5814 5.52027 19.2887 6.28133 20.0165 6.64499C20.3314 6.8023 20.6463 6.93102 20.7164 6.93102C20.8208 6.93102 20.8392 7.32336 20.8186 9.10602L20.7934 11.2811L20.038 11.389C18.5751 11.5979 16.8488 12.3185 15.6841 13.2064L15.0747 13.6709L13.5529 12.1525L12.0311 10.6341L12.2791 10.1185C12.4498 9.76367 12.5404 9.39598 12.57 8.93923C12.6678 7.42639 11.9117 6.14886 10.5278 5.48924C9.98932 5.23246 9.82582 5.19936 9.12157 5.20452C8.00707 5.21277 7.38091 5.46767 6.62894 6.21964C5.87697 6.97161 5.62207 7.59777 5.61382 8.71227C5.60866 9.41511 5.64213 9.58105 5.89704 10.1185C6.26425 10.8924 6.84654 11.475 7.62157 11.844C8.17019 12.1053 8.31972 12.1341 9.12175 12.1341C9.90372 12.1341 10.0756 12.1028 10.528 11.8781L11.0434 11.6222L12.5618 13.1437L14.0802 14.6654L13.6157 15.2748C12.7278 16.4395 12.0072 18.1658 11.7983 19.6287L11.6904 20.3841L9.51532 20.4093C7.73266 20.4299 7.34032 20.4115 7.34032 20.3071C7.34032 20.0074 6.739 19.0141 6.32069 18.6229C5.764 18.1022 5.30622 17.8626 4.58219 17.7131C2.02713 17.1858 -0.24518 19.7453 0.587789 22.2123C1.09488 23.7139 2.37373 24.6498 3.91844 24.6498C5.41957 24.6498 6.77557 23.695 7.21638 22.3278L7.37566 21.8339L9.53763 21.859L11.6997 21.8841L11.7227 22.1654C11.7566 22.581 12.0353 23.9478 12.1112 24.0705C12.158 24.1463 12.3581 24.1176 12.8122 23.97C13.4061 23.7769 13.4444 23.7478 13.3963 23.5268C12.9967 21.6926 12.9815 20.4786 13.3406 19.0659C13.5468 18.2545 14.1031 17.0156 14.5584 16.3538C15.6667 14.7429 17.5323 13.4414 19.4809 12.9196C20.459 12.6577 22.4429 12.6302 23.3938 12.8653C25.5966 13.4101 27.4148 14.6604 28.6164 16.4569L29.0641 17.1264L29.683 16.7998L30.3017 16.4731L29.9649 15.9442C29.7796 15.6534 29.5006 15.2536 29.3449 15.0558L29.0617 14.696L30.5878 13.1679L32.1139 11.6397L32.6412 11.8869C33.0949 12.0997 33.2925 12.1341 34.0591 12.1341C34.8249 12.1341 35.022 12.0998 35.4653 11.8895C36.2301 11.5265 36.8155 10.9585 37.1728 10.2327C37.459 9.65136 37.4809 9.53998 37.4809 8.66736C37.4809 7.82755 37.453 7.67099 37.2177 7.19183C36.8549 6.45299 36.2426 5.85327 35.4864 5.49636C34.927 5.23227 34.7661 5.19936 34.0591 5.20452C32.9678 5.21258 32.3156 5.47114 31.6171 6.17286C31.0194 6.77314 30.7276 7.31774 30.5823 8.10317C30.4597 8.76627 30.5296 9.31995 30.8311 10.0716L31.0565 10.6341L29.5471 12.1458L28.0379 13.6575L27.4156 13.1848C26.2452 12.2958 24.302 11.5119 22.8794 11.355L22.2934 11.2904L22.2683 9.12833L22.2432 6.96636L22.7371 6.80708C24.1043 6.36627 25.0591 5.01027 25.0591 3.50914C25.0591 1.20749 22.8652 -0.476636 20.6462 0.121677ZM22.1829 1.50027C22.6405 1.62739 23.2583 2.18314 23.4779 2.66539C23.819 3.41427 23.631 4.40164 23.0334 4.99911C21.7153 6.31724 19.4894 5.38142 19.4894 3.50914C19.4894 2.07439 20.7812 1.11102 22.1829 1.50027ZM9.69738 6.66486C9.89707 6.72467 10.2347 6.92267 10.4475 7.10492C11.8575 8.31177 11.1098 10.602 9.25563 10.7557C8.55663 10.8138 8.005 10.5915 7.54197 10.0655C6.13629 8.46861 7.66535 6.05605 9.69738 6.66486ZM34.7266 6.70067C35.2292 6.87795 35.7119 7.32261 35.9434 7.82164C36.362 8.72389 36.0015 9.92305 35.1565 10.4389C33.7011 11.327 31.952 10.3465 31.9604 8.64711C31.9674 7.20139 33.3629 6.21945 34.7266 6.70067ZM20.3234 14.4673C18.9515 14.73 17.7827 15.3544 16.7732 16.3639C14.9044 18.2327 14.2923 20.8497 15.1327 23.378C15.5735 24.7041 16.6739 26.0934 17.8971 26.8684L18.5903 27.3075V28.1818C18.5903 28.7163 18.553 29.056 18.4942 29.056C18.3021 29.056 17.1231 28.4098 16.5661 27.9992C16.2519 27.7676 15.7528 27.3306 15.4568 27.028C14.9606 26.5207 14.1751 25.4485 14.0382 25.0917C13.9879 24.9608 13.9004 24.9802 13.379 25.2373C13.0484 25.4003 12.7779 25.5774 12.7781 25.6309C12.7784 25.7742 13.4064 26.7949 13.7654 27.2356L14.0771 27.6183L12.5602 29.1327L11.0434 30.6472L10.4809 30.4218C9.72925 30.1203 9.17557 30.0504 8.51247 30.173C7.72704 30.3183 7.18244 30.6101 6.58216 31.2078C5.88044 31.9063 5.62188 32.5585 5.61382 33.6498C5.60866 34.3568 5.64157 34.5177 5.90566 35.0771C6.26257 35.8333 6.86229 36.4456 7.60113 36.8084C8.08029 37.0437 8.23685 37.0716 9.07666 37.0716C9.94928 37.0716 10.0607 37.0497 10.642 36.7635C11.3678 36.4062 11.9358 35.8208 12.2988 35.056C12.5091 34.6127 12.5434 34.4156 12.5434 33.6498C12.5434 32.8832 12.509 32.6856 12.2962 32.2319L12.049 31.7046L13.5698 30.1858L15.0907 28.667L15.8281 29.1961C16.5598 29.7211 17.8376 30.3933 18.3325 30.5136L18.5903 30.5763V31.5036V32.431H16.5747H14.5591V36.2423V40.0536L15.6525 41.797C16.2538 42.7559 16.7757 43.575 16.8122 43.6172C16.8615 43.6744 17.6968 43.2257 18.0109 42.9732C18.0274 42.96 17.574 42.2036 17.0031 41.2925L15.9653 39.636V36.7366V33.8373H17.9809H19.9966V27.3746C19.9966 23.0455 20.0294 20.8249 20.096 20.648C20.4776 19.6361 21.7959 19.2911 22.5962 19.9938C23.2054 20.5287 23.1841 20.2707 23.1841 27.0843V33.2748H23.8872H24.5903V30.7435V28.2123H25.7622H26.9341V30.7435V33.2748H27.6372H28.3403V31.3998V29.5248H29.4653H30.5903V31.3998V33.2748H31.2934H31.9966V32.1966V31.1185H33.1216H34.2466V32.5248V33.931H34.9497H35.6528V31.8216V29.7123H33.8247H31.9966V28.9154V28.1185H30.3026H28.6087L29.0698 27.5794C30.276 26.1692 31.0765 24.4249 31.35 22.6107L31.4665 21.8373H33.594H35.7214L35.9266 22.3999C36.2089 23.1743 36.9546 23.9703 37.7357 24.3309C38.2548 24.5706 38.4303 24.6029 39.2153 24.6029C39.9838 24.6029 40.1789 24.5687 40.638 24.3535C41.349 24.0201 41.9332 23.4635 42.3194 22.7515C42.6232 22.1911 42.6372 22.1222 42.6372 21.181C42.6372 20.2831 42.6132 20.1477 42.3635 19.6392C41.6285 18.1424 39.9489 17.3477 38.3732 17.7514C37.1178 18.0729 36.1957 18.9754 35.8024 20.2669C35.7567 20.4169 35.5685 20.431 33.602 20.431H31.4517L31.3874 19.9388C31.2888 19.1842 30.9529 17.8998 30.8542 17.8998C30.8057 17.8998 30.494 17.9946 30.1616 18.1107C29.708 18.2689 29.5708 18.3568 29.6119 18.4623C29.8928 19.1812 29.9797 19.8232 29.9801 21.181C29.9804 22.4195 29.9486 22.7443 29.7647 23.3799C29.4947 24.3135 28.9322 25.4571 28.3677 26.2201L27.9341 26.806H26.6627H25.3913L25.7642 26.5057C26.6366 25.8034 27.2223 25.0491 27.7367 23.9662C28.2032 22.9837 28.3666 22.1034 28.3143 20.8529C28.2389 19.0443 27.6493 17.691 26.3716 16.3934C25.4642 15.472 24.4309 14.876 23.1372 14.5275C22.5183 14.3609 21.0438 14.3293 20.3234 14.4673ZM22.6684 15.884C25.1465 16.4019 26.9277 18.616 26.9326 21.1848C26.9356 22.653 26.4224 23.8652 25.3468 24.931L24.6372 25.6341L24.5903 23.0091L24.5434 20.3841L24.287 19.8979C23.7188 18.8202 22.7692 18.2345 21.5903 18.2345C20.4114 18.2345 19.4618 18.8202 18.8936 19.8979L18.6372 20.3841L18.6083 22.9857C18.5904 24.5962 18.5446 25.5873 18.4879 25.5873C18.4375 25.5873 18.1084 25.2994 17.7566 24.9475C15.6375 22.8284 15.6492 19.5083 17.7832 17.3737C19.1217 16.035 20.8579 15.5055 22.6684 15.884ZM4.88735 19.2981C5.84725 19.7878 6.29088 21.0205 5.85166 21.9779C5.19944 23.3998 3.40122 23.6759 2.35441 22.5148C0.814945 20.8073 2.82991 18.2485 4.88735 19.2981ZM39.8327 19.1626C40.3368 19.3123 40.8606 19.7805 41.1366 20.3281C41.3843 20.8196 41.302 21.7905 40.97 22.2921C40.5828 22.8772 40.0594 23.1817 39.365 23.226C36.9121 23.3822 36.2192 19.9851 38.5354 19.1585C38.9954 18.9944 39.2693 18.9952 39.8327 19.1626ZM10.0448 31.7674C11.1459 32.3292 11.5068 33.6679 10.8482 34.7472C10.4948 35.3261 9.78447 35.7133 9.08135 35.7102C7.06629 35.7015 6.22657 33.0872 7.86832 31.9333C8.54257 31.4594 9.32425 31.3998 10.0448 31.7674ZM31.3403 36.6498V38.056H32.0434H32.7466V36.6498V35.2435H32.0434H31.3403V36.6498ZM34.2466 37.5708V39.8043L33.0278 42.7256L31.8091 45.6469V46.8202V47.9935H32.5122H33.2153V46.9608V45.9282L34.4341 43.0068L35.6528 40.0855V37.7114V35.3373H34.9497H34.2466V37.5708ZM18.0893 39.0513C17.6953 39.2977 17.563 39.431 17.6046 39.5395C17.6627 39.6909 19.1274 42.0697 19.2496 42.211C19.2992 42.2685 20.1544 41.8081 20.4515 41.5638C20.4944 41.5287 18.747 38.7157 18.6812 38.7137C18.6538 38.7129 18.3874 38.8648 18.0893 39.0513ZM20.6294 43.1023C20.3329 43.2914 20.0903 43.4771 20.0903 43.5149C20.0903 43.6151 20.7423 44.6185 20.8075 44.6185C20.8379 44.6185 21.1104 44.468 21.4131 44.2841L21.9636 43.9497L21.7535 43.5797C21.638 43.3762 21.4591 43.1082 21.3559 42.9841L21.1684 42.7584L20.6294 43.1023ZM18.1919 44.5127C17.8954 44.6995 17.6528 44.8862 17.6528 44.9275C17.6528 44.9687 17.8005 45.2333 17.9809 45.5154C18.3024 46.018 18.3091 46.0482 18.3091 47.0109V47.9935H19.0122H19.7153V46.8109V45.6284L19.2832 44.9352C19.0457 44.5539 18.8241 44.2264 18.791 44.2075C18.758 44.1885 18.4883 44.3258 18.1919 44.5127Z" fill="white"/>
</svg>
