<svg width="48" height="48" viewBox="0 0 48 48" fill="none" xmlns="http://www.w3.org/2000/svg">
<path fill-rule="evenodd" clip-rule="evenodd" d="M9.94912 4.08822C9.10881 4.35539 8.56728 4.82087 8.21151 5.58142L7.99217 6.05042L7.97119 18.342L7.95022 30.6336H8.61699H9.28376L9.2872 18.5765C9.29088 5.76949 9.27945 6.1747 9.64814 5.76065C9.72759 5.67139 9.93346 5.53382 10.1057 5.45487C10.4057 5.3173 10.9868 5.31128 24 5.31128C37.0131 5.31128 37.5943 5.3173 37.8943 5.45487C38.0665 5.53382 38.2724 5.67139 38.3519 5.76065C38.7205 6.1747 38.7091 5.76949 38.7128 18.5765L38.7162 30.6336H39.383H40.0498L40.0288 18.342L40.0078 6.05042L39.7865 5.57227C39.5111 4.97696 39.0524 4.52141 38.4423 4.23704L37.9726 4.0181L24.1174 4.00333C13.0775 3.9916 10.1986 4.0088 9.94912 4.08822ZM10.6145 7.30107V7.96548H11.2798H11.9452V7.30107V6.63666H11.2798H10.6145V7.30107ZM13.331 6.68591C13.3007 6.71616 13.2759 7.01639 13.2759 7.35321V7.96548H13.9836H14.6913L14.6685 7.32061L14.6458 6.67574L14.016 6.65331C13.6695 6.64096 13.3613 6.65558 13.331 6.68591ZM16.0157 7.30107V7.96548H16.681H17.3464V7.30107V6.63666H16.681H16.0157V7.30107ZM6.07217 9.40053C5.23061 9.58156 4.59225 10.1048 4.2036 10.9322L4 11.3657V23.3267V35.2878L4.2573 35.8096C4.56477 36.4334 5.04658 36.886 5.67147 37.1384L6.1135 37.3168L12.9299 37.3559L19.7463 37.395L18.9573 40.0135L18.1683 42.6321L17.4051 42.6544L16.6419 42.6768V43.3384V44H24H31.3581V43.3384V42.6768L30.5949 42.6544L29.8317 42.6321L29.0427 40.0135L28.2537 37.395L35.0701 37.3559L41.8865 37.3168L42.3285 37.1384C42.9534 36.886 43.4352 36.4334 43.7427 35.8096L44 35.2878V23.3267V11.3657L43.7937 10.9264C43.4181 10.1264 42.7045 9.53529 41.9648 9.41132C41.7926 9.3824 41.5886 9.34152 41.5115 9.32033C41.3834 9.28508 41.3734 9.34058 41.3941 9.96895L41.4168 10.6562L41.6812 10.71C42.0568 10.7864 42.329 11.0092 42.5323 11.4063L42.7084 11.7506V21.8565V31.9624H24H5.29159V21.8565V11.7506L5.46771 11.4063C5.671 11.0092 5.94317 10.7864 6.31883 10.71L6.58317 10.6562L6.60579 9.97521C6.61824 9.60071 6.60063 9.29727 6.56665 9.30087C6.53268 9.30447 6.31022 9.34933 6.07217 9.40053ZM10.6669 9.34621C10.638 9.37497 10.6145 9.67403 10.6145 10.0109V10.6231H24.0031H37.3919L37.3691 9.97826L37.3464 9.33339L24.0329 9.31361C16.7104 9.30275 10.6957 9.31744 10.6669 9.34621ZM11.6415 12.0398C11.2573 12.1534 11.0321 12.3213 10.8312 12.644C10.6568 12.924 10.6536 12.9712 10.6536 15.3131C10.6536 17.8679 10.664 17.9428 11.0709 18.3105C11.4363 18.6408 11.6963 18.6672 14.6067 18.6704C16.393 18.6723 17.496 18.6427 17.695 18.5875C18.1 18.4753 18.4842 18.0831 18.5962 17.6676C18.6567 17.4436 18.6781 16.6151 18.662 15.132C18.6386 12.9899 18.633 12.921 18.4579 12.6398C18.3588 12.4808 18.1475 12.2698 17.9883 12.1708C17.7009 11.9924 17.6762 11.991 14.8023 11.9763C13.0532 11.9674 11.8013 11.9926 11.6415 12.0398ZM21.0351 12.0303C20.7244 12.1035 20.4332 12.3067 20.2084 12.6072C20.0553 12.8119 20.0457 12.9421 20.0225 15.1428C20.0067 16.6403 20.0279 17.564 20.0822 17.7485C20.1847 18.0967 20.6044 18.4806 21.0038 18.5914C21.4009 18.7015 26.5991 18.7015 26.9962 18.5914C27.3956 18.4806 27.8153 18.0967 27.9178 17.7485C27.9721 17.564 27.9933 16.6403 27.9775 15.1428C27.9543 12.9421 27.9447 12.8119 27.7916 12.6072C27.5584 12.2956 27.2798 12.108 26.9294 12.0268C26.5548 11.9401 21.4049 11.9431 21.0351 12.0303ZM30.378 12.0228C30.0281 12.1092 29.7393 12.3232 29.5396 12.644C29.3677 12.9199 29.3613 12.9994 29.338 15.132C29.3219 16.6151 29.3433 17.4436 29.4038 17.6676C29.5158 18.0831 29.9 18.4753 30.305 18.5875C30.504 18.6427 31.607 18.6723 33.3933 18.6704C36.3037 18.6672 36.5637 18.6408 36.9291 18.3105C37.336 17.9427 37.3464 17.8684 37.3464 15.3074V12.9176L37.1381 12.6033C36.7372 11.9984 36.7043 11.9928 33.4716 11.9777C31.9002 11.9704 30.5081 11.9906 30.378 12.0228ZM17.3072 15.3131V17.3063H14.6458H11.9843L11.9634 15.3927C11.9518 14.3402 11.9597 13.4341 11.9808 13.3789C12.0114 13.2995 12.5699 13.283 14.6633 13.2993L17.3072 13.3199V15.3131ZM26.6614 15.3131V17.3454H24H21.3386V15.3131V13.2808H24H26.6614V15.3131ZM36.0157 15.3131V17.3063H33.3542H30.6928L30.6718 15.3927C30.6602 14.3402 30.6681 13.4341 30.6892 13.3789C30.7198 13.2995 31.2784 13.283 33.3717 13.2993L36.0157 13.3199V15.3131ZM11.4325 20.113C11.12 20.249 10.7973 20.6386 10.6962 21.0021C10.5899 21.3843 10.5899 25.2659 10.6962 25.6481C10.7998 26.0207 11.124 26.4046 11.4498 26.5405C11.8218 26.6958 17.4697 26.6958 17.8418 26.5405C18.1676 26.4046 18.4917 26.0207 18.5954 25.6481C18.7017 25.2659 18.7017 21.3843 18.5954 21.0021C18.4917 20.6295 18.1676 20.2456 17.8418 20.1097C17.4758 19.9569 11.7845 19.9599 11.4325 20.113ZM20.6748 20.1818C20.5001 20.2806 20.2858 20.4946 20.1868 20.669C20.0146 20.9727 20.0104 21.0362 20.0104 23.3251C20.0104 25.6079 20.015 25.6784 20.1856 25.9827C20.301 26.1888 20.4798 26.3554 20.7097 26.4713C21.0531 26.6443 21.1053 26.6472 24 26.6472C26.8947 26.6472 26.9469 26.6443 27.2903 26.4713C27.5202 26.3554 27.699 26.1888 27.8144 25.9827C27.985 25.6784 27.9896 25.6079 27.9896 23.3251C27.9896 21.0362 27.9854 20.9727 27.8132 20.669C27.7142 20.4946 27.4999 20.2806 27.3252 20.1818C27.0169 20.0074 26.9825 20.0056 24 20.0056C21.0175 20.0056 20.9831 20.0074 20.6748 20.1818ZM30.1409 20.113C29.8284 20.249 29.5058 20.6386 29.4046 21.0021C29.2983 21.3843 29.2983 25.2659 29.4046 25.6481C29.5083 26.0207 29.8324 26.4046 30.1582 26.5405C30.5303 26.6958 36.1782 26.6958 36.5502 26.5405C36.876 26.4046 37.2002 26.0207 37.3038 25.6481C37.4101 25.2659 37.4101 21.3843 37.3038 21.0021C37.2002 20.6295 36.876 20.2456 36.5502 20.1097C36.1842 19.9569 30.4929 19.9599 30.1409 20.113ZM17.3464 23.3251V25.3183H14.6458H11.9452V23.3251V21.3319H14.6458H17.3464V23.3251ZM26.6614 23.3251V25.3183H24H21.3386V23.3251V21.3319H24H26.6614V23.3251ZM36.0548 23.3251V25.3183H33.3542H30.6536V23.3251V21.3319H33.3542H36.0548V23.3251ZM11.3988 28.1518C10.7891 28.4629 10.6196 28.861 10.6164 29.9887L10.6145 30.6336H11.2767H11.9389L11.9616 29.9887L11.9843 29.3439H14.6458H17.3072L17.3299 29.9887L17.3527 30.6336H18.0149H18.6771L18.6737 29.9106C18.6686 28.8317 18.474 28.4067 17.8552 28.123C17.5695 27.992 17.2882 27.9793 14.6428 27.9777C11.7888 27.976 11.7382 27.9787 11.3988 28.1518ZM20.9162 28.0571C20.6227 28.1448 20.2521 28.495 20.1156 28.8138C20.048 28.9716 20.0078 29.3575 20.0078 29.8495V30.6336H20.6732H21.3386V29.9692V29.3048H24H26.6614V29.9692V30.6336H27.3268H27.9922V29.857C27.9922 29.4299 27.9548 28.9814 27.9091 28.8604C27.7855 28.5331 27.371 28.1411 27.0563 28.0538C26.7141 27.9589 21.2351 27.9618 20.9162 28.0571ZM30.1448 28.123C29.526 28.4067 29.3314 28.8317 29.3263 29.9106L29.3229 30.6336H29.9851H30.6473L30.6701 29.9887L30.6928 29.3439H33.3542H36.0157L36.0384 29.9887L36.0611 30.6336H36.7233H37.3855L37.3836 29.9887C37.3804 28.861 37.2109 28.4629 36.6012 28.1518C36.2618 27.9787 36.2112 27.976 33.3572 27.9777C30.7118 27.9793 30.4305 27.992 30.1448 28.123ZM42.6909 34.112C42.7098 34.797 42.6905 34.9366 42.5343 35.2408C42.3247 35.6493 42.0686 35.8542 41.6456 35.9523C41.2368 36.0469 6.76321 36.0469 6.35436 35.9523C5.93198 35.8544 5.67515 35.6492 5.46771 35.2438C5.32117 34.9574 5.29159 34.7734 5.29159 34.1476C5.29159 33.7339 5.31515 33.3719 5.34395 33.3432C5.37276 33.3145 13.7827 33.2998 24.0328 33.3106L42.6693 33.3303L42.6909 34.112ZM27.645 39.9947L28.433 42.6321L26.2164 42.6528C24.9974 42.6642 23.0026 42.6642 21.7836 42.6528L19.567 42.6321L20.355 39.9947L21.1429 37.3574H24H26.8571L27.645 39.9947Z" fill="white"/>
</svg>
