<svg width="80" height="80" viewBox="0 0 80 80" fill="none" xmlns="http://www.w3.org/2000/svg">
<path fill-rule="evenodd" clip-rule="evenodd" d="M5.61235 13.1331C4.8648 13.3327 4.15749 13.809 3.71698 14.4096C2.95038 15.455 3.00033 16.4974 3.00081 45.4813C3.00117 74.7456 3.00237 78.877 3.24305 79.2667C3.73004 80.0557 4.08825 79.9991 35.3466 79.9991C66.6049 79.9991 76.286 80.0557 76.7742 79.2667C77.0158 78.8762 77.0165 74.7947 76.9865 45.2527L76.9564 15.6304L76.6222 14.9581C76.2435 14.1964 75.663 13.6407 74.866 13.2765L74.3208 13.0273L32.9506 13.005C11.6243 12.9873 6.06053 13.0133 5.61235 13.1331ZM73.9015 16.0445C74.1393 16.2794 74.1411 19.4388 74.1411 40.6382V67.9952H32.711H5.87556V40.5858V16.1762L6.14188 15.9921C6.38088 15.8267 9.1012 15.8078 32.7377 15.8078C58.9075 15.8078 73.6633 15.8093 73.9015 16.0445ZM14.0608 21.1066C13.3344 21.3329 12.7863 21.7001 12.1788 22.3674C11.1875 23.4563 11.2067 23.2913 11.2067 30.7583V37.3252L11.5266 37.9991C12.1185 39.2465 13.2407 40.0894 14.6521 40.3471C15.0929 40.4276 18.5725 40.4583 24.7074 40.4358L34.0887 40.4015L34.8075 40.0701C35.6754 39.6699 36.4527 38.9526 36.8841 38.1534L37.2035 37.5618L37.2372 30.8614C37.2704 24.2819 37.2663 24.1489 37.0169 23.4903C36.7075 22.674 35.7885 21.7049 34.9273 21.2873L34.3283 20.9968L24.4447 20.9737C16.5504 20.9554 14.4605 20.9821 14.0608 21.1066ZM45.719 21.1228C45.3076 21.3434 45.0286 21.8644 45.0286 22.4125C45.0286 22.7277 45.1322 22.9459 45.4386 23.2763L45.8487 23.7182L60.8039 23.7493C66.119 23.7794 66.3066 23.7728 66.685 23.5431C67.5531 23.0159 67.6473 21.9624 66.8852 21.3016L66.4654 20.9376L60.9887 20.9424C56.3782 20.9464 45.995 20.9749 45.719 21.1228ZM34.038 24.1232L34.3882 24.4691V30.6679V36.8668L34.021 37.2143L33.6537 37.5618L24.4399 37.5942C14.3083 37.6298 14.5877 37.6483 14.2065 36.9201C14.038 36.5982 14.0195 35.8516 14.0487 30.5117L14.0819 24.4678L14.4732 24.1225L14.8645 23.7773H24.2761H33.6878L34.038 24.1232ZM46.1216 26.4847C45.8991 26.5382 45.5756 26.7214 45.4028 26.8921L45.0885 27.2022L45.0529 30.2712C45.0136 33.6597 45.0525 33.8824 45.7435 34.2353C46.2577 34.4979 66.1904 34.5045 66.7032 34.2425C67.3626 33.9058 67.4322 33.5443 67.4322 30.459C67.4322 27.3946 67.375 27.0707 66.7597 26.6593C66.4309 26.4395 66.157 26.4272 61.2026 26.4078C58.3363 26.3965 46.344 26.4312 46.1216 26.4847ZM19.2214 25.2445L18.8141 25.6468V30.5749C18.8141 34.6577 18.844 35.56 18.9885 35.8361C19.2142 36.2671 19.9221 36.6034 20.4036 36.5083C20.8966 36.4109 29.8704 31.8756 30.1294 31.593C30.4483 31.245 30.5113 30.4439 30.2567 29.9768C30.0703 29.635 29.5432 29.3317 26.1954 27.6398C20.5025 24.7628 20.6748 24.8422 20.1229 24.8422C19.7206 24.8422 19.553 24.917 19.2214 25.2445ZM64.557 30.451V31.5751H60.963H47.9038V30.451V29.327H60.963H64.557V30.451ZM23.7848 29.603C24.8725 30.139 25.7625 30.615 25.7625 30.6611C25.7625 30.707 24.846 31.2018 23.7259 31.7606L21.6893 32.7768V30.7026C21.6893 29.5619 21.7158 28.6285 21.7482 28.6285C21.7807 28.6285 22.6972 29.067 23.7848 29.603ZM45.7711 35.3208C44.7676 35.814 44.7973 37.3057 45.8201 37.7851C46.1446 37.9371 56.4788 37.9642 60.9811 37.9627C64.9905 37.9614 66.3667 37.9247 66.59 37.8131C66.7527 37.7317 67.0135 37.4796 67.1694 37.2528C67.5516 36.6968 67.4727 36.0568 66.9597 35.5499L66.5892 35.1839L61.1106 35.1552C56.2312 35.1296 46.1235 35.1477 45.7711 35.3208ZM45.6001 39.907C45.0516 40.3331 45.0144 40.6025 45.0527 43.864L45.0885 46.9118L45.4798 47.2569L45.8711 47.6019H60.9092C65.9583 47.6019 66.5116 47.583 66.7939 47.4003C67.3708 47.027 67.4322 46.6639 67.4322 43.6302C67.4322 41.2875 67.4005 40.7682 67.2364 40.4266C66.8704 39.6648 66.9512 39.6744 60.8653 39.6744C55.5777 39.6744 45.8879 39.6834 45.6001 39.907ZM64.557 43.6382V44.7622H60.963H47.9038V43.6382V42.5141H60.963H64.557V43.6382ZM12.3195 41.8466C11.8525 41.9167 11.2992 42.4758 11.2048 42.9729C11.1018 43.5155 11.4142 44.194 11.8758 44.4297C12.1636 44.5766 13.7611 44.6019 22.7597 44.6019H33.3061L33.6697 44.2766C34.5476 43.4909 34.2402 42.1994 33.1012 41.8869C32.6698 41.7686 13.0907 41.7305 12.3195 41.8466ZM45.9173 48.4265C45.1665 48.7265 44.8234 49.7065 45.2104 50.4456C45.5809 51.1532 55.0308 51.1516 61.0128 51.1516H66.4654L66.8852 50.7876C67.6473 50.1268 67.5529 49.0708 66.685 48.5482C66.3098 48.3222 66.0806 48.313 60.963 48.3198C58.0308 48.3237 46.0545 48.3717 45.9173 48.4265ZM12.1427 46.0339C11.3599 46.2576 10.9636 47.2022 11.3315 47.9678C11.7139 48.7638 11.5226 48.7432 18.5205 48.7432H24.8281L25.2354 48.3409C25.5785 48.002 25.6427 47.8544 25.6427 47.4034C25.6427 46.7399 25.2308 46.2026 24.5868 46.0259C24.0291 45.873 12.6805 45.8803 12.1427 46.0339ZM45.719 53.0467C45.072 53.3935 45.0286 53.6368 45.0286 56.9217C45.0286 59.8273 45.0374 59.9399 45.2883 60.255C45.8 60.8976 55.365 60.908 60.9292 60.9008C64.5725 60.8959 66.1746 60.8532 66.4696 60.7529C66.7097 60.6712 67.0026 60.4386 67.164 60.2015C67.4411 59.7944 67.443 59.7676 67.4078 56.7312L67.3723 53.6712L66.9249 53.2664L66.4773 52.8615L60.9947 52.8663C56.3789 52.8703 45.995 52.8988 45.719 53.0467ZM64.557 56.8844V58.0677H60.963H47.9038V56.8844V55.7012H60.963H64.557V56.8844ZM45.9169 61.6671C44.8297 62.1347 44.725 63.6391 45.7435 64.1592C46.2577 64.4218 66.1904 64.4284 66.7032 64.1664C67.0682 63.9801 67.4325 63.3472 67.4318 62.901C67.431 62.4651 66.9878 61.8562 66.5349 61.6694C65.9491 61.4276 46.4787 61.4256 45.9169 61.6671ZM74.1411 73.4972V77.1594H64.8057C48.0594 77.1594 31.6287 77.1594 15.2109 77.1594H5.87556V73.4972V70.8349H32.711H74.1411V73.4972Z" fill="#EA5B21"/>
</svg>
