<svg width="80" height="80" viewBox="0 0 80 80" fill="none" xmlns="http://www.w3.org/2000/svg">
<path fill-rule="evenodd" clip-rule="evenodd" d="M16.2265 5.21734C15.1527 5.60094 14.1957 6.60391 13.9051 7.64984C13.8066 8.00437 13.7516 19.6548 13.752 40.0781L13.7527 71.9531L14.1195 72.7408C14.3212 73.1739 14.7157 73.7216 14.9962 73.9575C16.119 74.9022 14.4724 74.8438 39.9456 74.8438C65.7188 74.8438 63.8651 74.9167 64.9796 73.8592C66.0688 72.8259 66.0862 72.7164 66.0899 66.8359C66.0918 63.9356 66.1471 61.5625 66.2129 61.5625C66.2787 61.5625 67.2102 62.4489 68.2832 63.5322C70.4726 65.743 71.0298 66.0869 72.4215 66.0869C73.9676 66.0869 75.2812 65.2386 75.851 63.8722C76.1835 63.075 76.156 61.633 75.7937 60.8594C75.613 60.4736 74.3355 59.0758 72.4566 57.2078L69.4123 54.1813L69.9265 53.0672C70.8524 51.0608 71.0126 50.2113 71.0059 47.3438C71.0001 44.9439 70.9693 44.6738 70.5596 43.4375C69.7731 41.0642 68.738 39.3577 67.0785 37.6981L66.0809 36.7005L66.1004 28.7508C66.1112 24.3784 66.0613 20.6977 65.9895 20.5713C65.9177 20.4447 61.5435 16.8895 56.2691 12.6706L46.6795 5L31.7379 5.00687C19.8695 5.01234 16.6793 5.05562 16.2265 5.21734ZM44.9996 13.5631V19.6261L45.3979 20.4253C45.617 20.8648 46.046 21.4152 46.3513 21.648C47.4384 22.4772 47.6957 22.5 55.962 22.5H63.5934V28.8114V35.1228L62.4605 34.6841C58.5193 33.1578 54.0146 33.513 50.441 35.6317L49.398 36.25H35.6477H21.8973L21.5735 36.6617C21.0687 37.3034 21.1604 38.1281 21.7759 38.4809C22.0273 38.625 25.1232 38.6911 34.3985 38.75L46.688 38.8281L45.9162 40C45.4916 40.6445 44.9238 41.7519 44.6545 42.4609L44.1646 43.75H33.0688H21.9729L21.6112 44.0897C20.9534 44.7078 21.2046 45.7498 22.0929 46.0877C22.3732 46.1942 26.1687 46.25 33.1348 46.25H43.7496V47.635C43.7496 48.8736 43.9104 50.2041 44.1534 50.9766C44.2348 51.2352 43.6379 51.25 33.1062 51.25H21.9729L21.6112 51.5897C21.112 52.0588 21.1301 52.802 21.6527 53.2931L22.0559 53.6719L33.6449 53.7177L45.234 53.7634L45.7449 54.6056C47.586 57.6402 50.7849 59.9606 54.2599 60.7827C56.9652 61.4227 60.8571 61.077 62.9457 60.0116L63.5934 59.6811V65.7C63.5934 71.5105 63.5826 71.7295 63.2809 72.0312C62.9712 72.3409 62.7601 72.3438 39.9329 72.3438H16.8973L16.5735 71.932L16.2496 71.5203V39.8938V8.26703L16.6332 7.88359L17.0166 7.5H31.0082H44.9996V13.5631ZM61.0877 19.7864C61.2815 19.9673 60.3174 20 54.7916 20H48.2666L47.8832 19.6164L47.4996 19.233V14.0677V8.9025L54.1793 14.2377C57.8531 17.1719 60.962 19.6689 61.0877 19.7864ZM21.6332 21.6336C21.1676 22.0991 21.1324 22.7894 21.5482 23.303L21.8468 23.6719L30.3977 23.7148C39.7571 23.7619 39.5034 23.785 39.8574 22.8538C40.0435 22.3642 39.7943 21.6308 39.3635 21.4003C39.1935 21.3094 35.7135 21.25 30.5496 21.25H22.0166L21.6332 21.6336ZM21.6332 29.1336C20.9412 29.8255 21.2627 30.9384 22.2223 31.1725C22.4177 31.2203 29.4137 31.2397 37.7687 31.2156C52.7246 31.1725 52.9645 31.167 53.2643 30.8594C53.7613 30.3492 53.7556 29.5383 53.2513 29.0686C52.9121 28.7525 52.7918 28.75 37.4631 28.75H22.0166L21.6332 29.1336ZM59.8907 36.4984C61.351 36.8211 63.2745 37.7517 64.449 38.7038C69.2584 42.6025 70.0195 49.677 66.1426 54.4478C62.6954 58.6902 57.0332 59.8427 52.1179 57.3027C50.6395 56.5386 48.4049 54.4255 47.8656 53.2812C46.7581 50.9319 46.5691 50.4672 46.4174 49.7189C46.1706 48.5012 46.2118 46.0347 46.4988 44.8537C47.9399 38.923 53.9349 35.1827 59.8907 36.4984ZM73.5934 62.3916C73.5934 63.1544 73.1545 63.5938 72.3923 63.5938C71.8548 63.5938 71.6298 63.4084 69.0323 60.8255L66.2485 58.057L67.1466 57.1494L68.0449 56.2417L70.8191 59.028C73.4105 61.6306 73.5934 61.8523 73.5934 62.3916ZM21.5893 59.1116C21.1209 59.6103 21.1476 60.3184 21.6527 60.7931L22.0559 61.1719L30.3171 61.2162C37.3415 61.2539 38.6615 61.2258 39.1337 61.0284C39.7498 60.7711 40.056 60.2009 39.9038 59.5948C39.6877 58.7334 39.8721 58.75 30.539 58.75H21.9291L21.5893 59.1116Z" fill="#EA5B21"/>
</svg>
